# xmcd
#
# Track frame offsets: 
#        151
#        17355
#        28615
#        43840
#        60454
#        76829
#        95498
#        107229
#        121356
#        134164
#        151119
#        163016
#
# Disc length: 2421 seconds
#
# Revision: 4
# Processed by: cddbd v1.5.2PL0 Copyright (c) Steve Scherf et al.
# Submitted via: ExactAudioCopyFreeDBPlugin 1.0
#
DISCID=9309730c
DTITLE=Various Artist - Putumayo Presents Rhythm and Blues
DYEAR=2010
DGENRE=Rhythm and Blues
TTITLE0=Lavelle White - I've Never Found a Man to Love
TTITLE1=James Hunter - 'Til Your Fool Comes Home
TTITLE2=Cracked Ice - Sweet Feeling
TTITLE3=The Quantic Soul Orchestra - Who Knows
TTITLE4=The Emotions - My Honey and Me
TTITLE5=Sam Moore, Keb' Mo' and Angie Stone - Wang Dang Doodle
TTITLE6=Catherine Russell - Put Me Down Easy
TTITLE7=Ruthie Foster - 'Cuz I'm Here
TTITLE8=Snooks Eaglin - A Mother's Love
TTITLE9=Sharon Jones and the Dap-Kings - 100 Days, 100 Nights
TTITLE10=Rockie Charles - Before I Find the Right Girl for Me
TTITLE11=Irma Thomas with Henry Butler - River is Waiting
EXTD=
EXTT0=
EXTT1=
EXTT2=
EXTT3=
EXTT4=
EXTT5=
EXTT6=
EXTT7=
EXTT8=
EXTT9=
EXTT10=
EXTT11=
PLAYORDER=
